# This file uses centimeters as units for non-parametric coordinates.

mtllib base.mtl
g default
v 8.732381 -9.446749 -4.234080
v 6.030158 -9.446749 -7.622561
v 2.125334 -9.446749 -9.503026
v -2.208695 -9.446749 -9.503027
v -6.113521 -9.446749 -7.622564
v -8.815744 -9.446749 -4.234084
v -9.780158 -9.446749 -0.008718
v -8.815746 -9.446749 4.216648
v -6.113523 -9.446749 7.605129
v -2.208699 -9.446749 9.485594
v 2.125331 -9.446749 9.485595
v 6.030157 -9.446749 7.605131
v 8.732380 -9.446749 4.216650
v 9.696793 -9.446749 -0.008716
v 8.732381 0.019268 -4.234080
v 6.030158 0.019268 -7.622561
v 2.125334 0.019268 -9.503026
v -2.208695 0.019268 -9.503027
v -6.113521 0.019268 -7.622564
v -8.815744 0.019268 -4.234084
v -9.780158 0.019268 -0.008718
v -8.815746 0.019268 4.216648
v -6.113523 0.019268 7.605129
v -2.208699 0.019268 9.485594
v 2.125331 0.019268 9.485595
v 6.030157 0.019268 7.605131
v 8.732380 0.019268 4.216650
v 9.696793 0.019268 -0.008716
v -0.041683 0.019268 -0.008716
vt 0.000000 0.000018
vt 0.071428 0.000017
vt 0.142857 0.000016
vt 0.214285 0.000014
vt 0.285713 0.000013
vt 0.357142 0.000012
vt 0.428570 0.000010
vt 0.499999 0.000009
vt 0.571427 0.000008
vt 0.642855 0.000006
vt 0.714284 0.000005
vt 0.785712 0.000004
vt 0.857141 0.000003
vt 0.928569 0.000001
vt 0.999997 0.000000
vt 0.000003 0.156026
vt 0.071431 0.156025
vt 0.142860 0.156023
vt 0.214288 0.156022
vt 0.285716 0.156021
vt 0.357145 0.156019
vt 0.428573 0.156018
vt 0.500001 0.156017
vt 0.571430 0.156016
vt 0.642858 0.156014
vt 0.714287 0.156013
vt 0.785715 0.156012
vt 0.857143 0.156010
vt 0.928572 0.156009
vt 1.000000 0.156008
vt 0.983728 0.242848
vt 0.939194 0.187003
vt 0.874839 0.156011
vt 0.803410 0.156011
vt 0.739056 0.187003
vt 0.694521 0.242848
vt 0.678627 0.312485
vt 0.694521 0.382123
vt 0.739056 0.437968
vt 0.803410 0.468960
vt 0.874839 0.468960
vt 0.939194 0.437968
vt 0.983728 0.382123
vt 0.999623 0.312486
vt 0.839125 0.312485
vn 0.900969 0.000000 -0.433884
vn 0.623490 0.000000 -0.781832
vn 0.623490 0.000000 -0.781832
vn 0.900969 0.000000 -0.433884
vn 0.222521 0.000000 -0.974928
vn 0.222521 0.000000 -0.974928
vn -0.222521 0.000000 -0.974928
vn -0.222521 0.000000 -0.974928
vn -0.623490 0.000000 -0.781832
vn -0.623490 0.000000 -0.781832
vn -0.900969 0.000000 -0.433884
vn -0.900969 0.000000 -0.433884
vn -1.000000 0.000000 -0.000000
vn -1.000000 0.000000 -0.000000
vn -0.900969 0.000000 0.433884
vn -0.900969 0.000000 0.433884
vn -0.623490 0.000000 0.781831
vn -0.623490 0.000000 0.781831
vn -0.222521 0.000000 0.974928
vn -0.222521 0.000000 0.974928
vn 0.222521 0.000000 0.974928
vn 0.222521 0.000000 0.974928
vn 0.623490 0.000000 0.781832
vn 0.623490 0.000000 0.781832
vn 0.900969 0.000000 0.433884
vn 0.900969 0.000000 0.433884
vn 1.000000 0.000000 0.000000
vn 1.000000 0.000000 0.000000
vn 0.000000 1.000000 0.000000
vn 0.000000 1.000000 0.000000
vn 0.000000 1.000000 0.000000
vn 0.000000 1.000000 0.000000
vn 0.000000 1.000000 0.000000
vn 0.000000 1.000000 0.000000
vn 0.000000 1.000000 -0.000000
vn 0.000000 1.000000 0.000000
vn 0.000000 1.000000 0.000000
vn 0.000000 1.000000 0.000000
vn 0.000000 1.000000 0.000000
vn 0.000000 1.000000 0.000000
vn 0.000000 1.000000 -0.000000
vn 0.000000 1.000000 -0.000000
vn 0.000000 1.000000 0.000000
s 1
g base readyforexpexceptmerge
usemtl lambert3SG
f 1/1/1 2/2/2 16/17/3 15/16/4
f 2/2/2 3/3/5 17/18/6 16/17/3
f 3/3/5 4/4/7 18/19/8 17/18/6
f 4/4/7 5/5/9 19/20/10 18/19/8
f 5/5/9 6/6/11 20/21/12 19/20/10
f 6/6/11 7/7/13 21/22/14 20/21/12
f 7/7/13 8/8/15 22/23/16 21/22/14
f 8/8/15 9/9/17 23/24/18 22/23/16
f 9/9/17 10/10/19 24/25/20 23/24/18
f 10/10/19 11/11/21 25/26/22 24/25/20
f 11/11/21 12/12/23 26/27/24 25/26/22
f 12/12/23 13/13/25 27/28/26 26/27/24
f 13/13/25 14/14/27 28/29/28 27/28/26
f 14/14/27 1/15/1 15/30/4 28/29/28
s 2
f 15/43/29 16/42/30 29/45/31
f 16/42/30 17/41/32 29/45/31
f 17/41/32 18/40/33 29/45/31
f 18/40/33 19/39/34 29/45/31
f 19/39/34 20/38/35 29/45/31
f 20/38/35 21/37/36 29/45/31
f 21/37/36 22/36/37 29/45/31
f 22/36/37 23/35/38 29/45/31
f 23/35/38 24/34/39 29/45/31
f 24/34/39 25/33/40 29/45/31
f 25/33/40 26/32/41 29/45/31
f 26/32/41 27/31/42 29/45/31
f 27/31/42 28/44/43 29/45/31
f 28/44/43 15/43/29 29/45/31
