# This file uses centimeters as units for non-parametric coordinates.

mtllib packs.mtl
g default
v 4.161185 0.132543 2.898447
v 5.997930 0.143258 1.313630
v 3.935541 2.874919 2.655474
v 5.772286 2.885634 1.070657
v 3.282728 2.754100 1.898071
v 5.119473 2.764815 0.313255
v 3.508373 0.011724 2.141044
v 5.345118 0.022439 0.556227
v 3.941823 2.868258 2.574451
v 5.691262 2.878463 1.064965
v 5.113191 2.771477 0.394278
v 3.363752 2.761271 1.903764
v 4.162147 0.190548 2.811694
v 5.911586 0.200754 1.302208
v 5.333514 0.093768 0.631521
v 3.584075 0.083562 2.141007
v 3.309355 2.776089 1.929079
v 5.146100 2.786804 0.344262
v 3.592665 3.646188 2.263308
v 5.429410 3.656903 0.678491
v 3.043195 4.052385 1.629237
v 4.879939 4.063099 0.044421
v 2.759884 3.182286 1.295008
v 4.596629 3.193000 -0.289808
v 3.369247 2.828239 1.910585
v 5.118686 2.838444 0.401099
v 5.369517 3.604754 0.696985
v 3.620078 3.594549 2.206470
v 2.856804 3.207062 1.319243
v 4.606243 3.217268 -0.190243
v 4.857074 3.983577 0.105643
v 3.107635 3.973372 1.615128
v -1.527775 2.792382 -4.227968
v -3.317592 2.803096 -2.590338
v -1.820699 3.662482 -4.553805
v -3.610515 3.673195 -2.916175
v -1.252997 4.068677 -3.936005
v -3.042813 4.079392 -2.298374
v -0.960074 3.198578 -3.610167
v -2.749889 3.209293 -1.972537
v -1.587104 2.844532 -4.207739
v -3.291844 2.854737 -2.647949
v -3.551186 3.621047 -2.936405
v -1.846446 3.610841 -4.496194
v -1.057658 3.223355 -3.631570
v -2.762399 3.233560 -2.071780
v -3.021740 3.999870 -2.360236
v -1.316999 3.989665 -3.920025
v -2.407473 0.148836 -5.172120
v -4.197289 0.159550 -3.534490
v -2.174849 2.891212 -4.935822
v -3.964664 2.901927 -3.298191
v -1.500258 2.770393 -4.197749
v -3.290073 2.781107 -2.560119
v -1.732881 0.028017 -4.434048
v -3.522698 0.038731 -2.796417
v -2.178769 2.884551 -4.854650
v -3.883510 2.894756 -3.294860
v -3.286154 2.787770 -2.641291
v -1.581413 2.777564 -4.201080
v -2.405908 0.206841 -5.085377
v -4.110649 0.217046 -3.525587
v -3.513292 0.110060 -2.872018
v -1.808550 0.099855 -4.431808
vt 0.350428 0.599308
vt 0.106231 0.599257
vt 0.350486 0.321252
vt 0.106288 0.321201
vt 0.451868 0.321273
vt 0.696066 0.321324
vt 0.350407 0.700690
vt 0.696008 0.599380
vt 0.004848 0.599236
vt 0.004906 0.321180
vt 0.344683 0.315447
vt 0.100486 0.315396
vt 0.690263 0.315519
vt 0.446066 0.315468
vt 0.344740 0.043948
vt 0.100542 0.043897
vt 0.690319 0.044019
vt 0.446122 0.043969
vt 0.010767 0.043878
vt 0.010711 0.315378
vt 0.451810 0.599329
vt 0.106209 0.700640
vt 0.457673 0.315470
vt 0.112093 0.315399
vt 0.356291 0.315449
vt 0.457729 0.043971
vt 0.112150 0.043899
vt 0.356347 0.043950
vt 0.611190 0.853900
vt 0.611233 0.614202
vt 0.700330 0.614218
vt 0.700287 0.853916
vt 0.796451 0.859914
vt 0.796496 0.608254
vt 0.893195 0.608271
vt 0.893151 0.859931
vt 0.994253 0.608289
vt 0.994208 0.859949
vt 0.894835 0.255566
vt 0.894790 0.507226
vt 0.798090 0.507209
vt 0.798135 0.255549
vt 0.894709 0.960977
vt 0.798009 0.960960
vt 0.792110 0.501227
vt 0.792153 0.261529
vt 0.792014 0.513094
vt 0.790609 0.602180
vt 0.790513 0.614234
vt 0.790471 0.853932
vt 0.790562 0.865986
vt 0.791935 0.955072
vt 0.701926 0.501211
vt 0.701969 0.261513
vt 0.700476 0.599162
vt 0.701882 0.510076
vt 0.701801 0.958058
vt 0.700428 0.868971
vt 0.611197 0.853914
vt 0.611226 0.614216
vt 0.700323 0.614227
vt 0.700295 0.853924
vt 0.796458 0.859917
vt 0.796488 0.608257
vt 0.893188 0.608269
vt 0.893158 0.859928
vt 0.994246 0.608281
vt 0.994216 0.859940
vt 0.894806 0.255564
vt 0.894776 0.507223
vt 0.798076 0.507212
vt 0.798106 0.255552
vt 0.894722 0.960974
vt 0.798023 0.960962
vt 0.792095 0.501230
vt 0.792124 0.261532
vt 0.792002 0.513098
vt 0.790507 0.614238
vt 0.790570 0.865989
vt 0.791949 0.955076
vt 0.701912 0.501219
vt 0.701940 0.261522
vt 0.790601 0.602184
vt 0.700468 0.599171
vt 0.701868 0.510085
vt 0.790478 0.853935
vt 0.701815 0.958066
vt 0.700436 0.868980
vt 0.350494 0.599307
vt 0.106297 0.599315
vt 0.106288 0.321259
vt 0.350486 0.321252
vt 0.451868 0.321248
vt 0.696065 0.321241
vt 0.696074 0.599297
vt 0.451877 0.599304
vt 0.350497 0.700690
vt 0.106300 0.700697
vt 0.004915 0.599318
vt 0.004906 0.321262
vt 0.112092 0.315455
vt 0.344682 0.315448
vt 0.010709 0.315458
vt 0.100484 0.315456
vt 0.457672 0.315444
vt 0.690262 0.315437
vt 0.356289 0.315448
vt 0.446064 0.315445
vt 0.112083 0.043956
vt 0.344673 0.043949
vt 0.010701 0.043959
vt 0.100476 0.043956
vt 0.457663 0.043945
vt 0.690253 0.043938
vt 0.356281 0.043948
vt 0.446056 0.043946
vn 0.648156 0.119957 0.752000
vn 0.648156 0.119957 0.752000
vn 0.648156 0.119957 0.752000
vn 0.648156 0.119957 0.752000
vn -0.648156 -0.119957 -0.752000
vn -0.648156 -0.119957 -0.752000
vn -0.648156 -0.119957 -0.752000
vn -0.648156 -0.119957 -0.752000
vn 0.081686 -0.992769 0.087959
vn 0.081686 -0.992769 0.087959
vn 0.081686 -0.992769 0.087959
vn 0.081686 -0.992769 0.087959
vn 0.757114 0.004417 -0.653268
vn 0.757114 0.004417 -0.653268
vn 0.757114 0.004417 -0.653268
vn 0.757114 0.004417 -0.653268
vn -0.757114 -0.004417 0.653268
vn -0.757114 -0.004417 0.653268
vn -0.757114 -0.004417 0.653268
vn -0.757114 -0.004417 0.653268
vn -0.081683 0.992770 -0.087957
vn -0.081681 0.992770 -0.087958
vn -0.081681 0.992770 -0.087958
vn -0.081683 0.992770 -0.087957
vn -0.081685 0.992769 -0.087963
vn -0.081685 0.992769 -0.087963
vn -0.081687 0.992769 -0.087961
vn -0.081687 0.992769 -0.087961
vn -0.648156 -0.119957 -0.752000
vn -0.648156 -0.119957 -0.752000
vn -0.648156 -0.119957 -0.752000
vn -0.648156 -0.119957 -0.752000
vn -0.757114 -0.004417 0.653268
vn -0.757114 -0.004417 0.653268
vn -0.757114 -0.004417 0.653268
vn -0.757114 -0.004417 0.653268
vn 0.648156 0.119957 0.752000
vn 0.648156 0.119957 0.752000
vn 0.648156 0.119957 0.752000
vn 0.648156 0.119957 0.752000
vn 0.757114 0.004417 -0.653268
vn 0.757114 0.004417 -0.653268
vn 0.757114 0.004417 -0.653268
vn 0.757114 0.004417 -0.653268
vn 0.584372 -0.451604 0.674213
vn 0.584372 -0.451604 0.674213
vn 0.584372 -0.451604 0.674213
vn 0.584372 -0.451604 0.674213
vn 0.281657 0.900057 0.332515
vn 0.281657 0.900057 0.332515
vn 0.281657 0.900057 0.332515
vn 0.281657 0.900057 0.332515
vn -0.584982 0.449735 -0.674933
vn -0.584982 0.449735 -0.674933
vn -0.584982 0.449735 -0.674933
vn -0.584982 0.449735 -0.674933
vn -0.281657 -0.900057 -0.332515
vn -0.281657 -0.900057 -0.332515
vn -0.281657 -0.900057 -0.332515
vn -0.281657 -0.900057 -0.332515
vn 0.757114 0.004417 -0.653268
vn 0.757114 0.004417 -0.653268
vn 0.757114 0.004417 -0.653268
vn 0.757114 0.004417 -0.653268
vn -0.757114 -0.004417 0.653268
vn -0.757114 -0.004417 0.653268
vn -0.757114 -0.004417 0.653268
vn -0.757114 -0.004417 0.653268
vn 0.590404 -0.438177 0.677808
vn 0.586678 -0.438153 0.681051
vn 0.586785 -0.438153 0.680959
vn 0.590734 -0.438178 0.677521
vn 0.591067 -0.439883 0.676123
vn 0.591631 -0.439890 0.675626
vn 0.584637 -0.439920 0.681667
vn 0.584815 -0.439928 0.681509
vn 0.281656 0.900058 0.332515
vn 0.281656 0.900058 0.332515
vn 0.281656 0.900058 0.332515
vn 0.281656 0.900058 0.332515
vn -0.757114 -0.004417 0.653268
vn -0.757114 -0.004417 0.653268
vn -0.757114 -0.004417 0.653268
vn -0.757114 -0.004417 0.653268
vn -0.281657 -0.900058 -0.332515
vn -0.281657 -0.900058 -0.332515
vn -0.281656 -0.900058 -0.332514
vn -0.281656 -0.900058 -0.332514
vn 0.757114 0.004417 -0.653268
vn 0.757114 0.004417 -0.653268
vn 0.757114 0.004417 -0.653268
vn 0.757114 0.004417 -0.653268
vn -0.603757 -0.451604 -0.656910
vn -0.603757 -0.451604 -0.656910
vn -0.603757 -0.451604 -0.656910
vn -0.603757 -0.451604 -0.656910
vn -0.291220 0.900058 -0.324172
vn -0.291220 0.900058 -0.324172
vn -0.291220 0.900058 -0.324172
vn -0.291220 0.900058 -0.324172
vn 0.604388 0.449735 0.657612
vn 0.604388 0.449735 0.657612
vn 0.604388 0.449735 0.657612
vn 0.604388 0.449735 0.657612
vn 0.291220 -0.900057 0.324172
vn 0.291220 -0.900057 0.324172
vn 0.291220 -0.900057 0.324172
vn 0.291220 -0.900057 0.324172
vn -0.737769 0.004417 0.675038
vn -0.737770 0.004417 0.675038
vn -0.737769 0.004417 0.675038
vn -0.737769 0.004417 0.675038
vn 0.737769 -0.004417 -0.675039
vn 0.737769 -0.004417 -0.675039
vn 0.737769 -0.004417 -0.675039
vn 0.737769 -0.004417 -0.675039
vn -0.609892 -0.438175 -0.660330
vn -0.606261 -0.438151 -0.663680
vn -0.606365 -0.438151 -0.663585
vn -0.610213 -0.438176 -0.660032
vn -0.610507 -0.439879 -0.658625
vn -0.604238 -0.439917 -0.664357
vn -0.611056 -0.439887 -0.658111
vn -0.604412 -0.439924 -0.664194
vn -0.291220 0.900058 -0.324172
vn -0.291220 0.900058 -0.324172
vn -0.291220 0.900058 -0.324172
vn -0.291220 0.900058 -0.324172
vn 0.737770 -0.004416 -0.675038
vn 0.737770 -0.004416 -0.675038
vn 0.737770 -0.004416 -0.675038
vn 0.737770 -0.004416 -0.675038
vn 0.291220 -0.900058 0.324172
vn 0.291220 -0.900058 0.324172
vn 0.291220 -0.900058 0.324172
vn 0.291220 -0.900058 0.324172
vn -0.737769 0.004416 0.675039
vn -0.737769 0.004416 0.675039
vn -0.737769 0.004416 0.675039
vn -0.737769 0.004416 0.675039
vn -0.669779 0.119957 -0.732807
vn -0.669779 0.119957 -0.732807
vn -0.669779 0.119957 -0.732807
vn -0.669779 0.119957 -0.732807
vn 0.669779 -0.119957 0.732807
vn 0.669779 -0.119957 0.732807
vn 0.669779 -0.119957 0.732807
vn 0.669779 -0.119957 0.732807
vn -0.084212 -0.992769 -0.085543
vn -0.084212 -0.992769 -0.085543
vn -0.084212 -0.992769 -0.085543
vn -0.084212 -0.992769 -0.085543
vn -0.737770 0.004417 0.675037
vn -0.737770 0.004417 0.675038
vn -0.737770 0.004417 0.675038
vn -0.737770 0.004417 0.675037
vn 0.737770 -0.004417 -0.675038
vn 0.737770 -0.004417 -0.675038
vn 0.737770 -0.004417 -0.675038
vn 0.737770 -0.004417 -0.675038
vn 0.084209 0.992770 0.085542
vn 0.084208 0.992770 0.085543
vn 0.084208 0.992770 0.085543
vn 0.084209 0.992770 0.085542
vn 0.084211 0.992769 0.085545
vn 0.084211 0.992769 0.085545
vn 0.084213 0.992769 0.085544
vn 0.084213 0.992769 0.085544
vn 0.669779 -0.119957 0.732807
vn 0.669779 -0.119957 0.732807
vn 0.669779 -0.119957 0.732807
vn 0.669779 -0.119957 0.732807
vn 0.737769 -0.004416 -0.675039
vn 0.737769 -0.004416 -0.675039
vn 0.737769 -0.004416 -0.675039
vn 0.737769 -0.004416 -0.675039
vn -0.669779 0.119957 -0.732807
vn -0.669779 0.119957 -0.732807
vn -0.669779 0.119957 -0.732807
vn -0.669779 0.119957 -0.732807
vn -0.737770 0.004416 0.675038
vn -0.737770 0.004416 0.675038
vn -0.737770 0.004416 0.675038
vn -0.737770 0.004416 0.675038
s off
g packsmerged
usemtl lambert4SG
f 1/1/1 2/2/2 4/4/3 3/3/4
f 5/5/5 6/6/6 8/8/7 7/21/8
f 7/7/9 8/22/10 2/2/11 1/1/12
f 2/2/13 8/9/14 6/10/15 4/4/16
f 7/21/17 1/1/18 3/3/19 5/5/20
s 1
f 3/3/21 4/4/22 10/24/23 9/11/24
f 4/4/22 6/10/25 11/20/26 10/12/23
f 6/6/25 5/5/27 12/23/28 11/13/26
f 5/5/27 3/3/21 9/25/24 12/14/28
s off
f 9/11/29 10/24/30 14/27/31 13/15/32
f 10/12/33 11/20/34 15/19/35 14/16/36
f 11/13/37 12/23/38 16/26/39 15/17/40
f 12/14/41 9/25/42 13/28/43 16/18/44
f 29/29/45 30/30/46 31/31/47 32/32/48
f 19/33/49 20/34/50 22/35/51 21/36/52
f 21/36/53 22/35/54 24/37/55 23/38/56
f 23/39/57 24/40/58 18/41/59 17/42/60
f 18/41/61 24/40/62 22/35/63 20/34/64
f 23/43/65 17/44/66 19/33/67 21/36/68
s 2
f 17/42/69 18/41/70 26/45/71 25/46/72
f 18/41/70 20/34/73 26/47/71
f 26/47/71 20/34/73 27/48/74
f 20/34/73 19/33/75 27/49/74
f 27/49/74 19/33/75 28/50/76
f 19/33/75 17/44/69 28/51/76
f 28/51/76 17/44/69 25/52/72
s off
f 25/46/77 26/45/78 30/53/79 29/54/80
f 26/47/81 27/48/82 31/55/83 30/56/84
f 27/49/85 28/50/86 32/32/87 31/31/88
f 28/51/89 25/52/90 29/57/91 32/58/92
f 45/59/93 46/60/94 47/61/95 48/62/96
f 35/63/97 36/64/98 38/65/99 37/66/100
f 37/66/101 38/65/102 40/67/103 39/68/104
f 39/69/105 40/70/106 34/71/107 33/72/108
f 34/71/109 40/70/110 38/65/111 36/64/112
f 39/73/113 33/74/114 35/63/115 37/66/116
s 3
f 33/72/117 34/71/118 42/75/119 41/76/120
f 34/71/118 36/64/121 42/77/119
f 36/64/121 35/63/122 43/78/123
f 44/79/124 33/74/117 41/80/120
s off
f 41/76/125 42/75/126 46/81/127 45/82/128
f 42/77/129 43/83/130 47/84/131 46/85/132
f 43/78/133 44/86/134 48/62/135 47/61/136
f 44/79/137 41/80/138 45/87/139 48/88/140
s 3
f 43/78/123 35/63/122 44/86/124
f 42/77/119 36/64/121 43/83/123
f 35/63/122 33/74/117 44/79/124
s off
f 49/89/141 50/90/142 52/91/143 51/92/144
f 53/93/145 54/94/146 56/95/147 55/96/148
f 55/97/149 56/98/150 50/90/151 49/89/152
f 50/90/153 56/99/154 54/100/155 52/91/156
f 55/96/157 49/89/158 51/92/159 53/93/160
s 5
f 51/92/161 52/91/162 58/101/163 57/102/164
f 52/91/162 54/100/165 59/103/166 58/104/163
f 54/94/165 53/93/167 60/105/168 59/106/166
f 53/93/167 51/92/161 57/107/164 60/108/168
s off
f 57/102/169 58/101/170 62/109/171 61/110/172
f 58/104/173 59/103/174 63/111/175 62/112/176
f 59/106/177 60/105/178 64/113/179 63/114/180
f 60/108/181 57/107/182 61/115/183 64/116/184
